<?xml version="1.0" standalone="no"?>
<!DOCTYPE svg PUBLIC "-//W3C//DTD SVG 20010904//EN"
 "http://www.w3.org/TR/2001/REC-SVG-20010904/DTD/svg10.dtd">
<svg version="1.0" xmlns="http://www.w3.org/2000/svg"
 width="161.000000pt" height="225.000000pt" viewBox="0 0 161.000000 225.000000"
 preserveAspectRatio="xMidYMid meet">

<g transform="translate(0.000000,225.000000) scale(0.100000,-0.100000)"
fill="#000000" stroke="none">
<path d="M720 2178 c-122 -18 -196 -80 -255 -214 -20 -45 -25 -73 -25 -135 0
-57 4 -79 13 -79 8 0 8 -3 1 -8 -14 -9 -10 -69 7 -109 11 -28 11 -34 -5 -52
-11 -13 -15 -27 -11 -40 8 -27 25 -27 27 -1 0 11 1 26 2 33 1 6 4 14 8 17 5 4
22 92 30 158 1 6 6 12 11 12 5 0 7 6 4 14 -3 7 0 22 7 32 7 11 13 30 14 43 0
14 9 33 20 43 17 17 26 18 103 8 160 -19 221 -28 226 -34 3 -2 27 4 54 15 28
10 54 19 58 19 13 0 62 -101 55 -112 -4 -5 1 -26 9 -46 9 -21 19 -58 22 -84 7
-55 23 -63 32 -17 3 17 9 26 12 20 14 -22 1 227 -14 269 -34 97 -121 192 -196
215 -13 4 -29 12 -36 17 -20 16 -114 24 -173 16z m-235 -427 c3 -5 1 -12 -5
-16 -5 -3 -10 1 -10 9 0 18 6 21 15 7z"/>
<path d="M918 1693 c-42 -11 -58 -20 -58 -32 0 -31 25 -70 47 -76 27 -6 64 14
60 34 -1 8 4 16 12 19 10 3 12 0 8 -12 -7 -18 18 -23 28 -5 10 14 -24 49 -41
42 -8 -3 -14 -2 -14 1 0 4 12 11 26 16 14 6 22 14 19 20 -8 12 -16 12 -87 -7z"/>
<path d="M620 1692 c0 -6 5 -14 11 -18 8 -4 2 -12 -15 -21 -29 -15 -35 -42 -8
-42 9 0 33 -4 52 -7 33 -7 34 -8 10 -15 l-25 -7 25 -1 c14 -1 36 6 48 15 15
10 22 11 22 3 0 -8 4 -8 15 1 20 17 19 43 -3 70 -14 17 -32 23 -75 27 -36 3
-57 1 -57 -5z m85 -61 c3 -5 1 -12 -5 -16 -5 -3 -10 1 -10 9 0 18 6 21 15 7z"/>
<path d="M920 1491 c0 -5 7 -14 15 -21 8 -7 15 -19 15 -28 0 -8 3 -12 6 -9 9
8 -16 67 -27 67 -5 0 -9 -4 -9 -9z"/>
<path d="M670 1470 c-7 -13 -7 -20 -1 -20 6 0 15 9 21 20 7 13 7 20 1 20 -6 0
-15 -9 -21 -20z"/>
<path d="M708 1475 c-7 -8 33 -50 57 -59 25 -9 65 4 65 22 0 8 -3 12 -7 9 -3
-4 -12 -2 -20 4 -7 6 -13 8 -13 4 0 -4 -7 -2 -15 5 -8 7 -24 10 -34 7 -11 -3
-21 -1 -23 5 -2 5 -6 6 -10 3z"/>
<path d="M850 1460 c-12 -8 -11 -10 8 -10 12 0 22 5 22 10 0 13 -11 13 -30 0z"/>
<path d="M641 1404 c0 -11 3 -14 6 -6 3 7 2 16 -1 19 -3 4 -6 -2 -5 -13z"/>
<path d="M966 1397 c3 -10 9 -15 12 -12 3 3 0 11 -7 18 -10 9 -11 8 -5 -6z"/>
<path d="M664 1376 c-12 -31 3 -41 62 -43 46 -2 54 0 36 7 -13 5 -20 14 -17
20 4 6 12 7 18 3 7 -4 36 -6 65 -5 36 2 52 0 47 -7 -7 -12 9 -14 54 -5 31 6
42 29 19 37 -7 2 -31 0 -52 -5 -38 -8 -172 -3 -209 8 -10 3 -20 -1 -23 -10z"/>
<path d="M808 1333 c7 -3 16 -2 19 1 4 3 -2 6 -13 5 -11 0 -14 -3 -6 -6z"/>
<path d="M991 1209 c-13 -11 -29 -18 -35 -16 -6 2 -17 -2 -24 -10 -7 -7 -23
-13 -35 -14 -12 0 -34 -2 -49 -4 -20 -3 -25 0 -21 11 3 8 -1 14 -11 14 -9 0
-13 -6 -10 -14 5 -12 -5 -14 -53 -11 -31 2 -63 -1 -70 -7 -7 -6 -20 -7 -29 -4
-13 5 -14 4 -6 -7 7 -8 9 -16 6 -19 -7 -8 127 -48 159 -48 13 0 40 7 60 15 19
8 37 11 41 8 3 -4 6 -2 6 3 0 5 12 17 28 26 15 9 38 35 50 57 26 47 26 48 -7
20z"/>
<path d="M630 1192 c0 -5 7 -13 16 -16 10 -4 14 -1 12 6 -5 15 -28 23 -28 10z"/>
<path d="M511 1163 c-70 -95 -90 -117 -126 -138 -22 -13 -73 -33 -113 -44 -40
-11 -117 -35 -172 -53 l-100 -32 0 -448 0 -448 805 0 805 0 0 470 c0 259 -2
470 -4 470 -13 0 -275 73 -361 100 -92 29 -104 36 -151 86 l-51 54 5 -82 c6
-100 -25 -293 -42 -263 -6 10 -22 31 -35 47 -22 27 -29 29 -70 26 -25 -3 -55
-8 -65 -13 -19 -8 -19 -8 0 12 10 11 23 18 28 15 5 -3 6 0 2 7 -5 7 -14 10
-22 7 -7 -3 -16 -1 -20 5 -4 7 -10 6 -19 -1 -9 -8 -15 -8 -20 0 -3 5 -15 10
-27 10 -17 0 -18 -3 -9 -14 10 -12 8 -15 -11 -18 -17 -2 -22 -8 -20 -23 2 -11
1 -17 -3 -13 -3 3 -9 20 -11 37 -6 39 -61 123 -96 147 -15 10 -33 29 -39 41
-7 13 -14 21 -17 18 -8 -8 45 -90 92 -142 l45 -50 -55 -56 -54 -57 -11 27 c-6
16 -15 55 -19 88 -4 33 -13 78 -20 101 -9 32 -10 53 -1 94 6 29 10 55 7 57 -2
2 -13 -9 -25 -24z m264 -253 c-3 -5 -16 -10 -28 -9 -20 1 -20 2 3 9 14 4 26 8
28 9 2 1 0 -3 -3 -9z m69 -51 c-3 -5 0 -9 6 -9 19 0 49 -44 39 -56 -6 -8 2
-11 30 -11 21 0 44 -3 50 -7 14 -9 14 -70 0 -116 -5 -19 -14 -78 -19 -130 -13
-135 -29 -203 -46 -196 -8 3 -14 -1 -14 -9 0 -19 17 -28 23 -13 4 9 6 9 6 1 1
-6 -5 -18 -13 -25 -8 -8 -11 -26 -9 -45 5 -29 -19 -83 -37 -83 -4 0 -19 10
-33 23 -24 21 -26 30 -36 160 -11 144 -16 161 -62 214 -33 38 -69 116 -69 149
0 13 -5 24 -11 24 -5 0 -7 4 -4 10 3 5 1 19 -5 30 -20 38 -5 42 39 10 23 -17
45 -29 49 -26 3 3 0 6 -6 6 -7 0 -12 5 -12 11 0 7 -7 17 -17 24 -14 11 -13 13
10 19 15 3 27 11 27 16 0 5 7 7 16 3 11 -4 14 -13 9 -30 -3 -13 -3 -46 1 -74
9 -64 24 -45 24 28 0 66 25 122 51 116 10 -3 16 -9 13 -14z m-233 -129 c6 0 7
-4 4 -10 -3 -5 -2 -10 3 -10 5 0 21 -27 37 -61 15 -33 38 -73 50 -87 37 -44
62 -104 68 -162 3 -30 4 -49 1 -42 -4 9 -11 7 -23 -7 -10 -12 -21 -18 -24 -15
-3 3 -4 -6 -3 -20 2 -15 7 -30 11 -34 4 -4 4 4 0 17 -5 18 -4 22 5 16 8 -5 11
-4 7 2 -4 6 0 13 8 17 10 4 17 -3 21 -22 13 -65 13 -62 -8 -51 -30 16 -33 4
-8 -35 13 -23 17 -36 10 -36 -7 0 -10 -8 -7 -20 3 -12 0 -20 -7 -20 -16 0 -17
-30 -2 -50 9 -13 9 -13 -6 -2 -9 7 -17 21 -17 30 -1 29 -67 322 -101 447 -18
66 -34 136 -36 155 -2 19 -1 27 2 18 3 -10 10 -18 15 -18z m176 -572 c-3 -8
-6 -5 -6 6 -1 11 2 17 5 13 3 -3 4 -12 1 -19z m-16 -105 c13 -16 12 -17 -3 -4
-17 13 -22 21 -14 21 2 0 10 -8 17 -17z"/>
<path d="M771 554 c0 -11 3 -14 6 -6 3 7 2 16 -1 19 -3 4 -6 -2 -5 -13z"/>
<path d="M882 510 c0 -14 2 -19 5 -12 2 6 2 18 0 25 -3 6 -5 1 -5 -13z"/>
<path d="M827 289 c7 -7 15 -10 18 -7 3 3 -2 9 -12 12 -14 6 -15 5 -6 -5z"/>
<path d="M730 214 c0 -8 5 -12 10 -9 6 3 10 10 10 16 0 5 -4 9 -10 9 -5 0 -10
-7 -10 -16z"/>
<path d="M989 1058 c-13 -18 -27 -36 -32 -39 -5 -4 -6 -13 -2 -20 6 -8 4 -11
-7 -7 -8 4 -15 1 -15 -6 0 -6 -3 -24 -7 -39 -5 -20 -3 -27 8 -27 20 0 31 17
61 93 31 76 28 94 -6 45z"/>
</g>
</svg>
