<?xml version="1.0" standalone="no"?>
<!DOCTYPE svg PUBLIC "-//W3C//DTD SVG 20010904//EN"
 "http://www.w3.org/TR/2001/REC-SVG-20010904/DTD/svg10.dtd">
<svg version="1.0" xmlns="http://www.w3.org/2000/svg"
 width="273.000000pt" height="425.000000pt" viewBox="0 0 273.000000 425.000000"
 preserveAspectRatio="xMidYMid meet">

<g transform="translate(0.000000,425.000000) scale(0.100000,-0.100000)"
fill="#000000" stroke="none">
<path d="M0 2125 l0 -2125 1365 0 1365 0 0 2125 0 2125 -1365 0 -1365 0 0
-2125z m1293 1588 c-21 -4 -23 -10 -23 -59 0 -30 -4 -54 -10 -54 -5 0 -10 24
-10 54 0 49 -2 55 -22 59 -13 2 2 4 32 4 30 0 45 -2 33 -4z m49 -18 c-4 -22
-1 -25 28 -25 29 0 32 3 28 25 -3 16 -1 25 7 25 9 0 12 -18 11 -60 0 -35 -5
-60 -12 -60 -6 0 -9 13 -6 30 4 28 2 30 -27 30 -28 0 -31 -3 -31 -30 0 -16 -4
-30 -10 -30 -6 0 -10 27 -10 60 0 44 4 60 14 60 9 0 12 -8 8 -25z m168 16 c0
-4 -12 -6 -26 -3 -25 4 -25 3 -22 -44 3 -47 4 -49 31 -46 18 2 26 -1 22 -7 -3
-6 -22 -11 -41 -11 l-34 0 0 60 0 60 35 0 c19 0 35 -4 35 -9z m-10 -51 c0 -5
-7 -7 -15 -4 -8 4 -15 8 -15 10 0 2 7 4 15 4 8 0 15 -4 15 -10z m-560 -224 c0
-10 -12 -12 -45 -8 l-45 5 0 -121 c0 -87 3 -122 13 -125 6 -3 -4 -6 -23 -6
l-35 -1 3 126 3 126 -43 -3 c-32 -3 -44 0 -46 11 -2 13 15 15 108 12 83 -2
110 -7 110 -16z m-515 -83 c21 -54 46 -115 57 -135 l18 -38 -22 0 c-19 0 -27
11 -46 60 -23 58 -25 60 -61 60 -36 0 -38 -2 -56 -52 -11 -29 -18 -56 -17 -60
1 -5 -7 -8 -18 -8 -19 0 -19 2 -6 23 7 12 33 73 57 134 24 62 47 113 50 113 3
0 23 -44 44 -97z m240 72 c31 -30 31 -46 1 -83 l-25 -29 40 -56 c39 -55 50
-61 94 -58 17 2 17 0 5 -8 -8 -6 -29 -11 -46 -11 -31 0 -59 23 -103 88 -13 18
-31 32 -43 32 -18 0 -19 -5 -16 -60 l3 -60 -35 1 c-19 0 -29 3 -22 6 9 3 12
39 12 128 0 89 -3 125 -12 128 -7 3 18 6 55 6 59 1 71 -2 92 -24z m595 9 c56
-33 74 -101 46 -167 -53 -125 -238 -118 -262 10 -9 49 22 121 65 150 41 28
110 31 151 7z m239 -6 c0 -13 -3 -17 -6 -10 -3 7 -24 12 -54 12 l-49 0 0 -56
0 -57 50 5 c35 4 50 1 50 -7 0 -8 -15 -11 -50 -7 l-50 5 0 -61 c0 -39 4 -62
13 -65 6 -3 -8 -5 -33 -5 -25 0 -39 2 -32 5 9 3 12 39 12 128 0 89 -3 125 -12
128 -7 3 26 6 75 6 84 1 87 0 86 -21z m157 13 c-4 -5 7 -44 24 -87 16 -43 30
-84 30 -91 0 -33 18 -7 38 55 26 82 27 90 5 114 -15 17 -14 18 21 18 20 0 35
-4 32 -9 -3 -5 9 -52 28 -105 l33 -96 33 91 c19 50 33 98 33 105 0 8 9 14 20
14 15 0 17 -3 9 -13 -6 -7 -30 -67 -53 -132 -23 -66 -43 -122 -45 -124 -8 -8
-15 8 -47 97 l-33 91 -33 -94 c-18 -52 -36 -95 -40 -95 -4 0 -27 54 -50 121
-24 66 -50 127 -58 135 -12 12 -9 14 22 14 20 0 34 -4 31 -9z m464 -116 c24
-60 50 -118 58 -127 14 -17 13 -18 -14 -18 -26 0 -31 5 -50 58 -19 54 -22 57
-57 60 -36 3 -38 1 -57 -43 -11 -26 -20 -53 -20 -61 0 -8 -10 -14 -22 -14 -14
0 -18 3 -12 8 7 4 31 57 54 117 52 134 60 150 69 139 5 -5 27 -58 51 -119z
m213 114 c44 -24 49 -63 14 -101 l-24 -26 33 -45 c41 -56 75 -80 99 -71 13 5
16 4 11 -4 -4 -7 -25 -12 -46 -12 -40 0 -67 22 -107 90 -11 19 -25 30 -40 30
-21 0 -23 -4 -23 -54 0 -34 5 -56 13 -59 6 -3 -4 -6 -23 -6 l-35 -1 0 135 0
135 53 0 c29 0 63 -5 75 -11z m127 -409 c0 -14 -2167 -14 -2175 0 -4 7 373 10
1084 10 727 0 1091 -3 1091 -10z m-1390 -161 c0 -6 -6 -9 -13 -6 -8 3 -20 1
-28 -3 -10 -7 -7 -11 14 -19 15 -6 27 -17 27 -25 0 -19 -38 -46 -56 -39 -22 8
-16 23 7 20 12 -1 24 4 26 11 3 6 -3 12 -11 12 -22 0 -31 27 -16 45 14 17 50
20 50 4z m438 -3 c-12 -8 -18 -27 -18 -50 0 -20 -4 -36 -10 -36 -5 0 -10 18
-10 40 0 31 -4 40 -17 41 -23 1 23 17 52 18 19 0 19 0 3 -13z m-363 -37 c-5
-24 -4 -30 5 -24 8 5 11 3 8 -5 -2 -8 -10 -16 -16 -18 -13 -4 -17 59 -5 71 12
13 15 7 8 -24z m38 -11 c3 -21 2 -38 -3 -38 -11 0 -21 45 -14 65 8 21 10 18
17 -27z m80 -17 c-3 -12 -9 -21 -14 -21 -11 0 -11 7 -2 51 5 29 7 30 14 12 4
-12 5 -30 2 -42z m37 19 c0 -47 -16 -54 -22 -10 -4 24 6 50 19 50 2 0 3 -18 3
-40z m310 32 c0 -5 -7 -17 -15 -28 -19 -25 -19 -35 0 -28 8 4 15 1 15 -5 0 -6
-10 -11 -23 -11 -20 0 -24 5 -24 33 0 17 5 35 11 39 15 10 36 10 36 0z m73
-34 c4 -29 2 -38 -9 -38 -15 0 -19 35 -8 65 8 21 10 18 17 -27z m37 1 c0 -35
-2 -40 -14 -29 -8 6 -13 18 -10 26 2 8 6 21 9 29 8 27 15 16 15 -26z m339
-1513 c-34 -51 -50 -62 -75 -52 -14 5 -6 17 37 61 30 29 58 50 62 46 5 -5 -6
-29 -24 -55z m237 49 c-3 -8 0 -14 6 -12 15 3 76 -100 84 -141 6 -32 1 -48
-41 -146 -14 -32 -122 -146 -138 -146 -6 0 0 12 14 27 16 19 18 23 4 12 -36
-29 -51 -34 -31 -11 29 33 11 38 -25 8 -17 -15 -38 -25 -45 -22 -7 3 -15 0
-18 -7 -2 -7 -4 -3 -3 8 3 26 16 47 26 41 4 -3 8 1 8 9 0 17 -13 20 -22 5 -4
-6 -30 -22 -58 -36 -29 -13 -44 -19 -35 -11 10 8 15 17 11 21 -4 4 1 4 12 1
15 -5 16 -4 6 3 -8 6 -10 15 -5 23 6 11 4 11 -10 0 -45 -37 -44 70 1 123 14
17 29 30 33 29 12 -3 83 144 76 155 -4 6 10 23 30 39 33 24 38 26 47 12 9 -15
13 -14 34 7 27 27 48 32 39 9z m-1294 -182 c1 -32 2 -76 1 -98 -2 -30 0 -36 8
-25 7 11 9 8 7 -15 -2 -22 -9 -31 -24 -33 -18 -3 -20 1 -16 26 2 17 -2 40 -8
52 -11 21 -10 22 10 17 21 -5 21 -5 4 14 -9 10 -14 19 -9 19 4 0 3 6 -3 13
-11 13 6 87 20 87 5 0 9 -26 10 -57z m128 -114 c12 -133 9 -163 -16 -173 -22
-8 -22 -9 -25 44 -2 25 -8 48 -14 53 -6 4 -1 10 13 13 17 5 20 9 11 15 -8 5
-14 35 -16 79 -1 40 -8 78 -14 86 -10 12 -9 13 5 8 10 -4 18 0 22 11 13 33 23
-9 34 -136z m820 130 c0 -3 -49 -12 -109 -18 -60 -7 -125 -14 -143 -16 -18 -2
-53 -6 -78 -9 -25 -3 -72 -8 -105 -11 -33 -3 -72 -8 -87 -11 -21 -4 -28 -2
-28 9 0 17 11 19 200 42 197 23 350 30 350 14z m-699 -38 c5 -13 7 -31 5 -40
-3 -9 -10 -56 -16 -105 -6 -49 -16 -99 -22 -110 -12 -23 -29 -37 -38 -31 -13
8 -4 283 9 299 18 22 52 15 62 -13z m106 -43 c-3 -8 -6 -5 -6 6 -1 11 2 17 5
13 3 -3 4 -12 1 -19z m50 -50 c-3 -7 -5 -2 -5 12 0 14 2 19 5 13 2 -7 2 -19 0
-25z m-32 -8 c12 -23 13 -35 5 -50 -18 -34 -30 -22 -30 30 0 28 2 50 5 50 2 0
11 -14 20 -30z m-95 -31 c0 -11 -4 -17 -10 -14 -5 3 -10 13 -10 21 0 8 5 14
10 14 6 0 10 -9 10 -21z m51 -171 c11 -21 -4 -58 -25 -58 -19 0 -27 38 -11 53
9 10 10 18 2 33 -10 17 -9 18 7 5 9 -8 22 -23 27 -33z m-939 -16 c3 -11 0 -19
-8 -19 -8 0 -14 9 -14 19 0 10 4 18 9 18 5 0 11 -8 13 -18z m755 12 c-3 -3
-12 -4 -19 -1 -8 3 -5 6 6 6 11 1 17 -2 13 -5z m-805 -59 c-2 -14 -8 -25 -12
-25 -11 0 -17 29 -11 59 3 22 5 22 16 8 7 -10 10 -28 7 -42z m-52 2 c0 -5 -7
-4 -15 3 -8 7 -15 20 -15 29 1 13 3 13 15 -3 8 -11 15 -24 15 -29z m-94 -3
c-3 -9 -6 -29 -6 -45 0 -18 -4 -28 -10 -24 -19 12 -9 85 12 85 6 0 7 -7 4 -16z
m204 7 c0 -6 -4 -13 -10 -16 -5 -3 -10 1 -10 9 0 9 5 16 10 16 6 0 10 -4 10
-9z"/>
<path d="M356 3356 c-20 -49 -21 -46 14 -46 33 0 34 1 16 50 l-13 35 -17 -39z"/>
<path d="M570 3375 c0 -54 1 -55 28 -55 35 0 52 16 52 51 0 34 -24 59 -56 59
-22 0 -24 -3 -24 -55z"/>
<path d="M1118 3414 c-68 -36 -63 -137 8 -193 57 -45 154 -11 169 59 14 62
-60 151 -124 150 -14 -1 -38 -7 -53 -16z"/>
<path d="M2038 3350 l-16 -40 29 0 c33 0 34 5 16 49 l-14 32 -15 -41z"/>
<path d="M2250 3375 c0 -54 1 -55 28 -55 36 0 52 17 52 55 0 38 -16 55 -52 55
-27 0 -28 -1 -28 -55z"/>
<path d="M1577 2843 c-4 -3 -7 -11 -7 -17 0 -6 5 -5 12 2 6 6 9 14 7 17 -3 3
-9 2 -12 -2z"/>
<path d="M2125 940 c-3 -5 -1 -10 4 -10 6 0 11 5 11 10 0 6 -2 10 -4 10 -3 0
-8 -4 -11 -10z"/>
</g>
</svg>
